<?xml version="1.0" standalone="no"?>
<!DOCTYPE svg PUBLIC "-//W3C//DTD SVG 20010904//EN"
 "http://www.w3.org/TR/2001/REC-SVG-20010904/DTD/svg10.dtd">
<svg version="1.0" xmlns="http://www.w3.org/2000/svg"
 width="316.000000pt" height="316.000000pt" viewBox="0 0 316.000000 316.000000"
 preserveAspectRatio="xMidYMid meet">

<g transform="translate(0.000000,316.000000) scale(0.100000,-0.100000)"
fill="#000000" stroke="none">
<path d="M0 1580 l0 -1580 1580 0 1580 0 0 1580 0 1580 -1580 0 -1580 0 0
-1580z m1665 953 c-3 -10 -118 -346 -255 -748 -285 -839 -305 -896 -332 -950
-51 -101 -144 -179 -258 -217 -56 -18 -95 -22 -292 -26 -126 -2 -228 0 -228 4
0 5 25 82 56 172 l57 162 50 0 c68 0 131 31 159 80 13 20 138 375 278 789
l255 751 259 0 c242 0 258 -1 251 -17z m620 -410 c-4 -236 -5 -426 -3 -423 3
3 69 195 148 428 l143 422 213 0 c118 0 214 -3 214 -7 0 -3 -136 -405 -301
-892 -166 -487 -315 -925 -331 -973 l-30 -88 -224 0 -224 0 0 38 c0 20 7 195
16 389 8 194 14 368 12 388 -2 28 -34 -57 -147 -390 l-145 -425 -213 0 c-117
0 -213 3 -213 8 0 7 506 1501 611 1805 l51 147 215 0 215 0 -7 -427z"/>
</g>
</svg>
