<svg enable-background="new 0 0 256 256" height="512" viewBox="0 0 256 256" width="512" xmlns="http://www.w3.org/2000/svg"><path d="m185.833 96.988c-10.989 13.819-27.2 11.869-32.65 10.729-.99-.207-1.941.539-1.942 1.551v.02 24.202c0 16.548 13.539 30.086 30.086 30.086 16.548 0 30.086-13.539 30.086-30.086v-26.801c0-.157-.002-.314-.005-.471-.017-.853-.7-1.557-1.553-1.582-12.499-.366-19.084-5.32-21.615-7.801-.69-.676-1.805-.605-2.407.153z" fill="#f9c1a8"/><path d="m181.327 166.076c-17.968 0-32.586-14.618-32.586-32.586v-24.202c.001-1.254.552-2.406 1.512-3.185.968-.785 2.221-1.092 3.442-.834 5.763 1.205 20.242 2.662 30.181-9.838.727-.915 1.812-1.481 2.975-1.553 1.161-.079 2.307.355 3.14 1.172 2.056 2.015 8.114 6.74 19.938 7.086 2.188.065 3.936 1.835 3.979 4.03.004.171.005.346.005.521v26.801c.001 17.97-14.618 32.588-32.586 32.588zm-27.586-55.707v23.121c0 15.211 12.375 27.586 27.586 27.586s27.586-12.375 27.586-27.586v-26.387c-11.657-.537-18.412-4.852-21.724-7.826-11.256 13.406-27.294 12.18-33.448 11.092zm32.092-13.381h.01z"/><path d="m151.241 133.49v-20.737-2.04c-.63-.098-1.273-.153-1.931-.153-6.937 0-12.561 5.624-12.561 12.562 0 6.937 5.624 12.561 12.561 12.561.685 0 1.352-.07 2.006-.175-.044-.668-.075-1.34-.075-2.018z" fill="#f9c1a8"/><path d="m242.003 195.188c-.289-5.188-3.918-9.585-8.956-10.853l-23.366-5.881-14.056-6.93-12.242 14.944h-3.749l-11.73-14.943-14.056 6.93-2.491.627c.947 1.212 1.684 2.47 1.684 3.851 0 3.476-4.643 6.176-5.662 9.312-1.056 3.251 1.077 8.157-.892 10.863-1.989 2.733-7.328 2.211-10.06 4.199-2.706 1.969-3.848 7.219-7.099 8.274-2.535.823-5.632-1.332-8.562-2.189l-1.528 36.622c-.105 1.892 1.4 3.484 3.296 3.484h118.462c1.895 0 3.401-1.592 3.296-3.484z" fill="#facb35"/><path d="m198.466 193.006 9.885-15.208-12.726-6.275-12.242 14.944 6.966 7.296c2.316 2.425 6.289 2.054 8.117-.757z" fill="#fc3850"/><path d="m172.924 193.762 6.71-7.296-11.731-14.944-12.919 6.37 9.823 15.113c1.828 2.812 5.801 3.183 8.117.757z" fill="#fc3850"/><path d="m183.383 186.466h-3.749l-3.11 3.382v63.65h10.481v-63.238z" fill="#fcac27"/><path d="m149.31 110.56c.657 0 1.301.055 1.931.153v-1.425c0-.007 0-.014 0-.02.001-1.012.951-1.759 1.942-1.551 5.45 1.141 21.661 3.091 32.65-10.729.602-.757 1.717-.829 2.408-.151 2.531 2.481 9.116 7.434 21.615 7.801.853.025 1.536.728 1.553 1.582.003.157.005.313.005.471v4.024c.63-.098 1.273-.153 1.931-.153 3.386 0 6.453 1.346 8.712 3.525v-22.596c0-9.452-7.734-17.186-17.186-17.186-3.206 0-6.203.906-8.779 2.451-3.009-5.021-8.49-8.412-14.738-8.412h-8.825c-17.08 0-31.055 13.975-31.055 31.055v13.915c2.148-1.719 4.869-2.754 7.836-2.754z" fill="#843418"/><path d="m213.344 110.56c-.657 0-1.301.055-1.931.153v2.04 20.737c0 .678-.031 1.35-.076 2.017.655.105 1.322.175 2.006.175 6.937 0 12.561-5.624 12.561-12.561.002-6.937-5.622-12.561-12.56-12.561z" fill="#f9c1a8"/><path d="m181.327 163.576c-4.817 0-9.376-1.154-13.423-3.189v11.135l11.731 14.944h3.749l12.242-14.944v-11.585c-4.26 2.32-9.133 3.639-14.299 3.639z" fill="#f9c1a8"/><path d="m153.041 182.931c0 3.476-4.643 6.176-5.662 9.313-1.056 3.251 1.077 8.157-.892 10.863-1.989 2.733-7.328 2.211-10.06 4.2-2.706 1.969-3.848 7.219-7.099 8.274-3.137 1.018-7.132-2.524-10.608-2.524s-7.472 3.542-10.608 2.524c-3.251-1.056-4.393-6.305-7.099-8.274-2.733-1.989-8.072-1.467-10.06-4.2-1.969-2.706.164-7.612-.892-10.863-1.018-3.137-5.662-5.836-5.662-9.312s4.643-6.176 5.662-9.313c1.056-3.251-1.077-8.157.892-10.863 1.989-2.733 7.328-2.211 10.06-4.2 2.706-1.969 3.848-7.219 7.099-8.274 3.137-1.018 7.132 2.524 10.608 2.524s7.472-3.542 10.608-2.524c3.251 1.056 4.393 6.305 7.099 8.274 2.733 1.989 8.072 1.467 10.06 4.2 1.969 2.706-.164 7.612.892 10.863 1.019 3.136 5.662 5.836 5.662 9.312z" fill="#a0d85d"/><path d="m111.305 195.813-8.805-8.805c-1.876-1.876-1.876-4.917 0-6.793s4.917-1.876 6.793 0l5.408 5.409 13.161-13.161c1.876-1.876 4.917-1.876 6.793 0s1.876 4.917 0 6.793l-16.558 16.558c-1.875 1.875-4.916 1.874-6.792-.001z" fill="#edf4fc"/><path d="m90.061 173.619c1.056-3.251-1.077-8.157.892-10.863 1.989-2.733 7.328-2.211 10.061-4.199 2.706-1.969 3.848-7.219 7.099-8.274 3.137-1.018 7.132 2.524 10.608 2.524s7.472-3.543 10.608-2.524c3.251 1.055 4.393 6.305 7.099 8.274 2.733 1.989 8.072 1.467 10.06 4.2 1.969 2.706-.164 7.612.892 10.863.614 1.89 2.541 3.623 3.978 5.461l2.491-.627 14.056-6.93v-11.135c-9.286-4.669-15.858-14.005-16.588-24.88-.655.105-1.322.175-2.006.175-6.937 0-12.561-5.624-12.561-12.561 0-3.971 1.847-7.505 4.724-9.807v-13.917c0-17.08 13.975-31.055 31.055-31.055h8.825c3.737 0 7.195 1.22 10.018 3.269 0-11.762 0-22.89 0-32.262 0-4.673 0-8.901 0-12.564 0-5.563 0-9.814 0-12.24 0-6.625-5.42-12.045-12.045-12.045h-155.579c-6.625 0-12.045 5.42-12.045 12.045v155.578c0 6.625 5.42 12.045 12.045 12.045h60.732c.596-3.117 4.638-5.648 5.581-8.551z" fill="#bf6132"/><path d="m84.828 2.502h38.528v72.84h-38.528z" fill="#facb35"/><path d="m84.828 2.502h18.904v72.84h-18.904z" fill="#fcac27"/><path d="m213.344 138.183c-.752 0-1.539-.068-2.404-.207-1.275-.206-2.184-1.348-2.097-2.636.047-.71.07-1.298.07-1.85v-22.777c0-1.233.899-2.282 2.117-2.471.782-.121 1.561-.183 2.313-.183 8.305 0 15.062 6.756 15.062 15.062s-6.756 15.062-15.061 15.062zm.57-25.107v20.091c5.284-.296 9.492-4.688 9.492-10.045s-4.208-9.75-9.492-10.046z"/><path d="m149.31 138.183c-8.305 0-15.062-6.756-15.062-15.062s6.756-15.062 15.062-15.062c.753 0 1.531.062 2.313.183 1.218.189 2.117 1.238 2.117 2.471v22.777c0 .551.022 1.139.07 1.85.087 1.289-.822 2.431-2.097 2.636-.864.139-1.651.207-2.403.207zm-.569-25.107c-5.284.296-9.492 4.688-9.492 10.045s4.208 9.75 9.492 10.045z"/><path d="m222.057 116.585c-.635 0-1.261-.242-1.736-.7-1.889-1.822-4.367-2.825-6.977-2.825-.497 0-1.018.042-1.548.124-.721.11-1.455-.097-2.01-.572-.554-.475-.873-1.168-.873-1.898v-3.61c-11.657-.537-18.412-4.852-21.724-7.826-11.257 13.405-27.295 12.179-33.449 11.092v.344c0 .73-.319 1.423-.873 1.898-.555.475-1.291.682-2.01.572-.53-.083-1.051-.124-1.548-.124-2.302 0-4.472.763-6.275 2.207-.75.6-1.778.718-2.645.301-.866-.417-1.417-1.292-1.417-2.253v-13.916c0-18.502 15.053-33.556 33.555-33.556h8.825c6.069 0 11.836 2.891 15.548 7.675 2.513-1.126 5.229-1.714 7.97-1.714 10.855 0 19.686 8.831 19.686 19.686v22.594c0 1.003-.599 1.909-1.522 2.301-.315.135-.647.2-.977.2zm-8.143-8.514c1.971.074 3.881.529 5.643 1.33v-17.91c0-8.098-6.588-14.686-14.686-14.686-2.617 0-5.208.725-7.494 2.095-.568.341-1.251.44-1.893.281-.643-.161-1.196-.571-1.537-1.14-2.66-4.439-7.485-7.197-12.594-7.197h-8.825c-15.746 0-28.555 12.81-28.555 28.556v9.645c1.578-.6 3.254-.935 4.951-.979.236-.765.692-1.445 1.329-1.961.968-.785 2.221-1.092 3.442-.834 5.763 1.205 20.242 2.662 30.181-9.838.727-.915 1.812-1.481 2.975-1.553 1.161-.079 2.307.355 3.14 1.172 2.056 2.015 8.114 6.74 19.938 7.086 2.188.065 3.936 1.835 3.979 4.03.004.171.005.346.005.521v1.382z"/><path d="m183.383 188.966h-3.749c-.768 0-1.493-.353-1.966-.957l-11.73-14.944c-.346-.44-.534-.984-.534-1.543v-11.135c0-.868.45-1.673 1.188-2.128.738-.456 1.66-.496 2.435-.105 3.856 1.939 7.995 2.922 12.3 2.922 4.565 0 9.096-1.153 13.103-3.334.775-.421 1.714-.403 2.472.046.758.451 1.223 1.268 1.223 2.149v11.585c0 .578-.2 1.137-.566 1.584l-12.242 14.944c-.475.58-1.184.916-1.934.916zm-2.533-5h1.35l10.926-13.337v-6.778c-3.749 1.463-7.762 2.225-11.798 2.225-3.768 0-7.428-.637-10.923-1.896v6.479z"/><path d="m181.765 149.37c-4.703 0-9.083-2.329-11.719-6.23-.773-1.144-.472-2.698.672-3.471s2.698-.472 3.471.672c1.704 2.522 4.536 4.029 7.576 4.029 3.039 0 5.871-1.506 7.576-4.029.772-1.144 2.326-1.446 3.471-.671 1.144.773 1.444 2.327.671 3.471-2.636 3.9-7.016 6.229-11.718 6.229z"/><path d="m170.29 125.62c-1.394 0-2.5-1.15-2.5-2.5 0-1.537 1.414-2.761 2.99-2.45 1.112.207 2.01 1.205 2.01 2.45 0 1.386-1.114 2.5-2.5 2.5z"/><path d="m193.24 125.62c-1.389 0-2.5-1.117-2.5-2.5 0-1.243.896-2.242 2.01-2.45 1.545-.305 2.99.884 2.99 2.45 0 1.35-1.107 2.5-2.5 2.5z"/><path d="m220.372 255.998c-1.381 0-2.5-1.119-2.5-2.5v-34.425c0-1.381 1.119-2.5 2.5-2.5s2.5 1.119 2.5 2.5v34.425c0 1.38-1.12 2.5-2.5 2.5z"/><path d="m143.158 255.998c-1.381 0-2.5-1.119-2.5-2.5v-34.425c0-1.381 1.119-2.5 2.5-2.5s2.5 1.119 2.5 2.5v34.425c0 1.38-1.119 2.5-2.5 2.5z"/><path d="m128.113 218.266c-1.95 0-3.848-.801-5.573-1.53-1.372-.58-2.791-1.179-3.82-1.179s-2.448.599-3.82 1.179c-2.308.974-4.921 2.079-7.561 1.223-2.735-.888-4.224-3.376-5.538-5.572-.737-1.232-1.5-2.506-2.26-3.059-.779-.567-2.243-.906-3.657-1.233-2.476-.572-5.282-1.221-6.954-3.517-1.656-2.276-1.412-5.131-1.196-7.649.125-1.46.254-2.971-.052-3.913-.279-.86-1.24-1.96-2.168-3.024-1.695-1.94-3.615-4.14-3.615-7.061s1.92-5.12 3.615-7.061c.929-1.063 1.889-2.164 2.168-3.024.306-.942.177-2.452.052-3.912-.215-2.519-.459-5.374 1.197-7.65 1.671-2.296 4.478-2.945 6.954-3.517 1.415-.327 2.878-.665 3.657-1.232.759-.552 1.521-1.826 2.259-3.058 1.314-2.196 2.803-4.685 5.539-5.573 2.636-.857 5.252.248 7.56 1.223 1.372.58 2.791 1.179 3.82 1.179s2.448-.599 3.82-1.179c2.307-.974 4.922-2.079 7.561-1.223 2.735.888 4.224 3.376 5.538 5.572.737 1.232 1.5 2.506 2.26 3.059.779.567 2.243.906 3.658 1.233 2.476.572 5.282 1.221 6.953 3.517 1.656 2.276 1.412 5.131 1.196 7.65-.125 1.46-.254 2.97.052 3.911.279.861 1.24 1.96 2.168 3.024 1.694 1.94 3.615 4.14 3.615 7.061s-1.921 5.121-3.616 7.062c-.928 1.063-1.889 2.163-2.168 3.023-.306.941-.177 2.452-.052 3.912.215 2.519.459 5.374-1.197 7.65-1.671 2.296-4.477 2.945-6.953 3.517-1.416.327-2.879.666-3.658 1.233-.759.552-1.521 1.826-2.259 3.058-1.314 2.195-2.803 4.684-5.539 5.572-.664.216-1.328.308-1.986.308zm-18.777-65.669c-.168 0-.32.02-.452.062-.952.309-1.888 1.873-2.793 3.384-.995 1.662-2.023 3.381-3.607 4.534-1.603 1.167-3.571 1.621-5.474 2.061-1.623.375-3.463.801-4.036 1.588-.558.767-.398 2.634-.258 4.282.167 1.956.34 3.979-.278 5.882-.595 1.834-1.898 3.326-3.158 4.769-1.171 1.34-2.381 2.727-2.381 3.771s1.21 2.431 2.381 3.771c1.26 1.443 2.563 2.935 3.158 4.769.618 1.904.445 3.927.278 5.883-.141 1.647-.301 3.514.257 4.281.573.787 2.413 1.213 4.037 1.588 1.903.44 3.871.895 5.474 2.061 1.584 1.153 2.613 2.872 3.607 4.534.905 1.512 1.841 3.075 2.792 3.384.861.28 2.567-.439 4.07-1.073 1.746-.737 3.724-1.573 5.766-1.573s4.021.835 5.766 1.573c1.502.635 3.208 1.351 4.07 1.073.952-.309 1.888-1.873 2.793-3.384.995-1.662 2.023-3.38 3.607-4.533 1.603-1.167 3.571-1.622 5.474-2.062 1.624-.375 3.463-.801 4.036-1.588.558-.767.398-2.634.258-4.282-.167-1.956-.34-3.979.278-5.882.596-1.834 1.898-3.326 3.158-4.768 1.171-1.341 2.382-2.727 2.382-3.772s-1.21-2.431-2.381-3.772c-1.26-1.443-2.562-2.935-3.158-4.769-.618-1.904-.445-3.926-.278-5.882.141-1.647.301-3.515-.257-4.282-.573-.787-2.413-1.212-4.036-1.588-1.903-.44-3.871-.895-5.474-2.062-1.584-1.153-2.613-2.872-3.607-4.534-.905-1.512-1.841-3.075-2.792-3.384-.864-.281-2.568.438-4.07 1.073-1.746.737-3.724 1.573-5.766 1.573s-4.021-.835-5.766-1.573c-1.274-.535-2.691-1.133-3.62-1.133z"/><path d="m123.356 77.843h-38.528c-1.381 0-2.5-1.119-2.5-2.5v-72.841c0-1.381 1.119-2.5 2.5-2.5h38.528c1.381 0 2.5 1.119 2.5 2.5v72.84c0 1.382-1.119 2.501-2.5 2.501zm-36.028-5h33.528v-67.841h-33.528z"/><path d="m103.732 77.843h-18.904c-1.381 0-2.5-1.119-2.5-2.5v-72.841c0-1.381 1.119-2.5 2.5-2.5h18.904c1.381 0 2.5 1.119 2.5 2.5v72.84c0 1.382-1.119 2.501-2.5 2.501zm-16.404-5h13.904v-67.841h-13.904z"/><path d="m84.48 184.67h-60.731c-8.02 0-14.545-6.525-14.545-14.545v-155.578c0-8.02 6.525-14.544 14.545-14.544h155.578c8.02 0 14.545 6.524 14.545 14.544v57.066c0 .94-.527 1.8-1.364 2.227-.838.427-1.844.349-2.604-.204-2.517-1.827-5.474-2.792-8.55-2.792h-8.825c-15.746 0-28.555 12.81-28.555 28.555v13.915c0 .759-.345 1.478-.938 1.952-2.406 1.925-3.786 4.789-3.786 7.855 0 5.548 4.514 10.061 10.062 10.061.485 0 1.011-.047 1.609-.143.694-.111 1.404.074 1.954.512s.891 1.087.938 1.789c.649 9.68 6.479 18.421 15.216 22.813.844.424 1.377 1.289 1.377 2.233v11.136c0 .952-.541 1.821-1.395 2.242l-14.056 6.93c-.158.078-.324.139-.495.182l-2.491.627c-.962.243-1.971-.106-2.58-.885-.384-.492-.807-.974-1.227-1.456-1.26-1.444-2.563-2.938-3.159-4.773-.618-1.904-.445-3.926-.278-5.882.141-1.647.301-3.515-.257-4.282-.573-.787-2.413-1.212-4.036-1.588-1.903-.44-3.871-.895-5.474-2.062-1.584-1.153-2.613-2.872-3.607-4.534-.905-1.512-1.841-3.075-2.792-3.384-.862-.279-2.568.438-4.071 1.073-1.745.737-3.723 1.573-5.765 1.573s-4.021-.835-5.766-1.573c-1.503-.636-3.208-1.355-4.07-1.074-.952.309-1.888 1.873-2.792 3.384-.995 1.662-2.023 3.381-3.607 4.534-1.603 1.167-3.571 1.621-5.474 2.061-1.624.375-3.464.801-4.037 1.588-.558.767-.398 2.634-.258 4.282.167 1.956.34 3.979-.278 5.882-.595 1.833-1.896 3.324-3.153 4.767-1.061 1.216-2.158 2.475-2.35 3.482-.228 1.182-1.258 2.034-2.458 2.034zm-60.731-179.668c-5.263 0-9.545 4.282-9.545 9.544v155.578c0 5.263 4.282 9.545 9.545 9.545h58.983c.719-1.428 1.798-2.666 2.786-3.798.928-1.064 1.887-2.164 2.166-3.025.306-.942.177-2.452.052-3.912-.215-2.519-.459-5.374 1.197-7.65 1.671-2.296 4.478-2.945 6.954-3.517 1.415-.327 2.878-.665 3.657-1.232.759-.552 1.521-1.826 2.259-3.058 1.314-2.196 2.803-4.685 5.539-5.573 2.636-.857 5.252.248 7.56 1.224 1.372.58 2.791 1.179 3.82 1.179s2.448-.599 3.82-1.179c2.308-.975 4.924-2.079 7.561-1.223 2.734.887 4.224 3.375 5.538 5.571.737 1.232 1.5 2.506 2.26 3.059.779.567 2.243.906 3.658 1.233 2.476.572 5.282 1.221 6.953 3.517 1.656 2.276 1.412 5.131 1.196 7.65-.125 1.46-.254 2.97.052 3.912.28.863 1.241 1.965 2.171 3.031.115.131.229.263.343.395l.709-.179 12.423-6.125v-8.082c-8.807-4.97-14.858-13.791-16.314-23.706-8.204-.118-14.841-6.829-14.841-15.06 0-4.179 1.708-8.103 4.724-10.945v-12.777c0-18.502 15.053-33.555 33.555-33.555h8.825c2.608 0 5.15.515 7.519 1.508v-52.805c0-5.263-4.282-9.544-9.545-9.544h-155.58z"/><path d="m240.996 255.998h-118.462c-1.587 0-3.124-.662-4.214-1.814-1.091-1.153-1.666-2.724-1.577-4.309l1.526-36.587c.032-.769.416-1.479 1.041-1.928s1.422-.583 2.159-.368c1.044.306 2.046.729 3.015 1.138 1.503.635 3.204 1.356 4.073 1.073.952-.309 1.888-1.872 2.792-3.384.995-1.662 2.023-3.381 3.607-4.533 1.603-1.167 3.571-1.621 5.474-2.061 1.624-.375 3.464-.801 4.037-1.588.558-.767.398-2.634.258-4.282-.167-1.956-.34-3.979.278-5.882.596-1.834 1.898-3.326 3.158-4.768 1.171-1.341 2.382-2.727 2.382-3.772 0-.57-.367-1.305-1.154-2.312-.521-.666-.669-1.551-.395-2.351s.935-1.407 1.754-1.613l2.234-.562 13.818-6.813c1.061-.523 2.342-.232 3.072.699l10.98 13.987h1.35l11.492-14.028c.738-.898 1.998-1.171 3.04-.658l13.818 6.813 23.108 5.816c6.133 1.543 10.49 6.823 10.842 13.138 0 .012.001.023.002.035l2.288 54.826c.086 1.55-.488 3.12-1.579 4.273-1.094 1.153-2.63 1.815-4.217 1.815zm-117.877-39.019-1.383 33.138c-.019.334.127.536.216.629.088.094.281.25.582.25h118.462c.3 0 .493-.157.582-.25.088-.093.234-.295.218-.594l-2.289-54.842c-.236-4.111-3.075-7.546-7.069-8.552l-23.366-5.881c-.171-.043-.337-.104-.495-.182l-12.275-6.052-10.983 13.407c-.475.58-1.185.916-1.934.916h-3.749c-.768 0-1.493-.353-1.966-.957l-10.478-13.348-12.065 5.949c.255.709.417 1.483.417 2.32 0 2.921-1.921 5.121-3.616 7.062-.929 1.063-1.889 2.163-2.168 3.023-.306.941-.177 2.452-.052 3.912.215 2.519.459 5.374-1.197 7.65-1.671 2.296-4.478 2.945-6.953 3.517-1.415.327-2.878.666-3.658 1.233-.759.552-1.522 1.826-2.259 3.058-1.314 2.196-2.804 4.685-5.539 5.572-2.421.787-4.821-.077-6.983-.978z"/><path d="m109.538 197.581-8.805-8.805c-2.848-2.847-2.848-7.481 0-10.328 2.848-2.848 7.48-2.847 10.328 0l3.641 3.641 11.393-11.393c2.848-2.847 7.481-2.847 10.328 0 2.848 2.848 2.848 7.481.001 10.329l-16.558 16.557c-2.854 2.853-7.473 2.853-10.328-.001zm-3.642-16.271c-.59 0-1.18.224-1.629.673-.898.898-.898 2.359 0 3.257l8.805 8.805c.871.87 2.387.87 3.258 0l16.558-16.557c.897-.898.898-2.36 0-3.258-.899-.897-2.36-.897-3.259 0l-13.16 13.161c-.938.938-2.598.938-3.535 0l-5.409-5.409c-.449-.448-1.039-.672-1.629-.672z"/><path d="m188.542 195.489-6.966-7.296c-.872-.914-.926-2.334-.126-3.311l12.242-14.944c.738-.899 1.998-1.172 3.04-.658l12.726 6.275c.641.316 1.116.891 1.305 1.58s.075 1.426-.314 2.025l-9.885 15.208c-1.29 1.985-3.382 3.25-5.739 3.47-2.389.22-4.667-.656-6.283-2.349zm-1.823-9.15 5.439 5.696c.573.6 1.377.899 2.201.823.826-.077 1.559-.52 2.011-1.216l8.352-12.848-8.42-4.152z"/><path d="m168.451 197.837c-2.357-.22-4.449-1.484-5.739-3.47l-9.823-15.112c-.389-.599-.504-1.336-.314-2.025.189-.688.664-1.264 1.305-1.58l12.919-6.371c1.059-.523 2.341-.232 3.072.699l11.73 14.944c.757.964.703 2.334-.126 3.236l-6.71 7.296c-.01.011-.021.023-.032.034-1.614 1.69-3.89 2.57-6.282 2.349zm4.473-4.075h.01zm-14.31-14.871 8.29 12.752c.452.696 1.185 1.139 2.011 1.216.82.077 1.615-.218 2.187-.809l5.253-5.711-9.166-11.676z"/><path d="m187.005 255.998h-10.481c-1.381 0-2.5-1.119-2.5-2.5v-63.649c0-.627.235-1.231.66-1.692l3.11-3.382c.473-.515 1.141-.808 1.84-.808h3.749c.683 0 1.336.279 1.808.773l3.622 3.793c.444.465.692 1.083.692 1.727v63.238c0 1.38-1.119 2.5-2.5 2.5zm-7.981-5h5.481v-59.736l-2.191-2.295h-1.583l-1.708 1.856v60.175z"/></svg>