<svg enable-background="new 0 0 24 24" height="512" viewBox="0 0 24 24" width="512" xmlns="http://www.w3.org/2000/svg"><path d="m23.25 21h-22.5c-.414 0-.75-.336-.75-.75s.336-.75.75-.75h22.5c.414 0 .75.336.75.75s-.336.75-.75.75z" fill="#b0bec5"/><path d="m23.25 10h-22.5c-.414 0-.75-.336-.75-.75s.336-.75.75-.75h22.5c.414 0 .75.336.75.75s-.336.75-.75.75z" fill="#b0bec5"/><path d="m12 19.5h-11.25c-.414 0-.75.336-.75.75s.336.75.75.75h11.25z" fill="#99a5ac"/><path d="m12 8.5h-11.25c-.414 0-.75.336-.75.75s.336.75.75.75h11.25z" fill="#99a5ac"/><path d="m12.25 2h-6.5c-.41 0-.75.34-.75.75v5c0 .41.34.75.75.75h6.5c.41 0 .75-.34.75-.75v-5c0-.41-.34-.75-.75-.75z" fill="#ffcc80"/><path d="m9.75 2v3.25c0 .41-.34.75-.75.75s-.75-.34-.75-.75v-3.25z" fill="#795548"/><path d="m8.25 2h-2.5c-.41 0-.75.34-.75.75v5c0 .41.34.75.75.75h3.25v-2.5c-.41 0-.75-.34-.75-.75z" fill="#deb26f"/><path d="m9 2h-.75v3.25c0 .41.34.75.75.75z" fill="#694a3f"/><path d="m10.25 14h-5.5c-.41 0-.75.34-.75.75v4c0 .41.34.75.75.75h5.5c.41 0 .75-.34.75-.75v-4c0-.41-.34-.75-.75-.75z" fill="#ffb74d"/><path d="m8.25 14v2.25c0 .41-.34.75-.75.75s-.75-.34-.75-.75v-2.25z" fill="#795548"/><path d="m6.75 14h-2c-.41 0-.75.34-.75.75v4c0 .41.34.75.75.75h2.75v-2.5c-.41 0-.75-.34-.75-.75z" fill="#de9f43"/><path d="m7.5 14h-.75v2.25c0 .41.34.75.75.75z" fill="#694a3f"/><path d="m19.25 13h-6.5c-.41 0-.75.34-.75.75v5c0 .41.34.75.75.75h6.5c.41 0 .75-.34.75-.75v-5c0-.41-.34-.75-.75-.75z" fill="#ffa726"/><path d="m16.75 13v3.25c0 .41-.34.75-.75.75s-.75-.34-.75-.75v-3.25z" fill="#795548"/><path d="m15.25 13h-2.5c-.41 0-.75.34-.75.75v5c0 .41.34.75.75.75h3.25v-2.5c-.41 0-.75-.34-.75-.75z" fill="#de9121"/><path d="m16 13h-.75v3.25c0 .41.34.75.75.75z" fill="#694a3f"/><path d="m2.5 24h-2c-.276 0-.5-.224-.5-.5v-23c0-.276.224-.5.5-.5h2c.276 0 .5.224.5.5v23c0 .276-.224.5-.5.5z" fill="#546e7a"/><path d="m1.5 0h-1c-.276 0-.5.224-.5.5v23c0 .276.224.5.5.5h1z" fill="#49606a"/><path d="m23.5 24h-2c-.276 0-.5-.224-.5-.5v-23c0-.276.224-.5.5-.5h2c.276 0 .5.224.5.5v23c0 .276-.224.5-.5.5z" fill="#546e7a"/><path d="m22.5 0h-1c-.276 0-.5.224-.5.5v23c0 .276.224.5.5.5h1z" fill="#49606a"/></svg>