<?xml version="1.0" encoding="iso-8859-1"?>
<!-- Generator: Adobe Illustrator 19.0.0, SVG Export Plug-In . SVG Version: 6.00 Build 0)  -->
<svg xmlns="http://www.w3.org/2000/svg" xmlns:xlink="http://www.w3.org/1999/xlink" version="1.1" id="Capa_1" x="0px" y="0px" viewBox="0 0 512 512" style="enable-background:new 0 0 512 512;" xml:space="preserve" width="512" height="512">
<g>
	<path d="M368.226,0H143.774c-17.396,0-31.549,14.153-31.549,31.548V504.5c0,4.142,3.358,7.5,7.5,7.5s7.5-3.358,7.5-7.5v-8.532   h257.549v8.532c0,4.142,3.358,7.5,7.5,7.5s7.5-3.358,7.5-7.5V31.548C399.774,14.153,385.622,0,368.226,0z M127.226,480.968V31.548   c0-9.125,7.424-16.548,16.549-16.548h224.451c9.125,0,16.549,7.424,16.549,16.548v449.419H127.226z"/>
	<path d="M360.209,32.064H151.791c-4.142,0-7.5,3.358-7.5,7.5v384.774c0,4.142,3.358,7.5,7.5,7.5h208.419c4.142,0,7.5-3.358,7.5-7.5   V39.564C367.709,35.422,364.352,32.064,360.209,32.064z M303.581,320.645v-33.097h17.064v33.097H303.581z M271.516,320.645v-33.097   h17.064v33.097H271.516z M239.452,320.645v-33.097h17.064v33.097H239.452z M159.291,320.645v-33.097h65.161v33.097H159.291z    M256.516,95.161v33.097h-17.064V95.161H256.516z M288.581,95.161v33.097h-17.064V95.161H288.581z M320.645,95.161v33.097h-17.064   V95.161H320.645z M352.709,95.161v33.097h-17.064V95.161H352.709z M352.709,143.258v33.097H159.291v-33.097H352.709z    M159.291,272.548v-33.097h193.419v33.097H159.291z M256.516,191.355v33.097h-17.064v-33.097H256.516z M288.581,191.355v33.097   h-17.064v-33.097H288.581z M320.645,191.355v33.097h-17.064v-33.097H320.645z M224.452,224.452h-65.161v-33.097h65.161V224.452z    M335.645,224.452v-33.097h17.064v33.097H335.645z M335.645,287.548h17.064v33.097h-17.064V287.548z M352.709,47.064v33.097   H199.886c-4.142,0-7.5,3.358-7.5,7.5s3.358,7.5,7.5,7.5h24.565v33.097h-65.161V95.161h8.53c4.142,0,7.5-3.358,7.5-7.5   s-3.358-7.5-7.5-7.5h-8.53V47.064H352.709z M159.291,416.839v-33.097h152.823c4.142,0,7.5-3.358,7.5-7.5s-3.358-7.5-7.5-7.5   H159.291v-33.097h193.419v33.097h-8.53c-4.142,0-7.5,3.358-7.5,7.5s3.358,7.5,7.5,7.5h8.53v33.097H159.291z"/>
	<path d="M272.032,448.903h-32.064c-4.142,0-7.5,3.358-7.5,7.5s3.358,7.5,7.5,7.5h32.064c4.142,0,7.5-3.358,7.5-7.5   S276.174,448.903,272.032,448.903z"/>
</g>















</svg>
